<?xml version="1.0" standalone="no"?><svg xmlns="http://www.w3.org/2000/svg" viewBox="0 0 1440 320"><path fill="#1e202d" fill-opacity="1" d="M0,192L34.3,202.7C68.6,213,137,235,206,213.3C274.3,192,343,128,411,138.7C480,149,549,235,617,250.7C685.7,267,754,213,823,181.3C891.4,149,960,139,1029,149.3C1097.1,160,1166,192,1234,202.7C1302.9,213,1371,203,1406,197.3L1440,192L1440,320L1405.7,320C1371.4,320,1303,320,1234,320C1165.7,320,1097,320,1029,320C960,320,891,320,823,320C754.3,320,686,320,617,320C548.6,320,480,320,411,320C342.9,320,274,320,206,320C137.1,320,69,320,34,320L0,320Z"></path></svg>